<svg xmlns="http://www.w3.org/2000/svg" viewBox="0 0 48 48" class=""><path d="M24 1a23 23 0 0 1 0 46H3.75a.75.75 0 0 1-.67-1.09l1.18-2.36a1 1 0 0 1 .9-.55H24a19 19 0 0 0 0-38H7.65a.38.38 0 0 0-.34.55L8.4 7.72a.5.5 0 0 0 .45.28H24a16 16 0 0 1 0 32H7.25a.75.75 0 0 1-.67-1.09l4.68-9.36a1 1 0 0 1 .89-.55H24a5 5 0 0 0 0-10h-9.35a.38.38 0 0 0-.34.55l1.09 2.17a.5.5 0 0 0 .45.28H24a2 2 0 0 1 0 4H13.66a1 1 0 0 1-.89-.55l-4.69-9.36A.75.75 0 0 1 8.75 15H24a9 9 0 0 1 0 18h-9.65a.5.5 0 0 0-.45.28l-1.09 2.17a.38.38 0 0 0 .34.55H24a12 12 0 0 0 0-24H6.66a1 1 0 0 1-.89-.55L1.08 2.09A.75.75 0 0 1 1.75 1z"></path></svg>